<?xml version="1.0" encoding="utf-8"?>
<!-- Generator: Adobe Illustrator 19.1.0, SVG Export Plug-In . SVG Version: 6.00 Build 0)  -->
<svg version="1.1" id="Layer_1" xmlns="http://www.w3.org/2000/svg" xmlns:xlink="http://www.w3.org/1999/xlink" x="0px" y="0px"
	 width="388px" height="162px" viewBox="0 0 388 162" style="enable-background:new 0 0 388 162;" xml:space="preserve">
<style type="text/css">
	.st0{fill:#D12750;}
	.st1{fill:#F05481;}
	.st2{fill:#F389AA;}
	.st3{fill:#F5831F;}
	.st4{fill:#FCBB7A;}
	.st5{fill:#FDCFA5;}
</style>
<g>
	<rect x="210" y="49.2" class="st3" width="5.8" height="5.8"/>
	<rect x="217.2" y="56.4" class="st3" width="5.8" height="5.8"/>
	<rect x="224.6" y="63.8" class="st4" width="5.8" height="5.8"/>
	<rect x="231.8" y="70.9" class="st5" width="5.8" height="5.8"/>
	<rect x="245.9" y="85.1" class="st3" width="5.8" height="5.8"/>
	<rect x="253.1" y="92.3" class="st3" width="5.8" height="5.8"/>
	<rect x="260.5" y="99.7" class="st3" width="5.8" height="5.8"/>
	<rect x="267.7" y="106.8" class="st4" width="5.8" height="5.8"/>
	<rect x="278.4" y="117.6" class="st5" width="5.8" height="5.8"/>
	<rect x="223.9" y="13.6" class="st3" width="5.8" height="5.8"/>
	<rect x="231.1" y="20.8" class="st3" width="5.8" height="5.8"/>
	<rect x="238.5" y="28.2" class="st3" width="5.8" height="5.8"/>
	<rect x="245.7" y="35.4" class="st3" width="5.8" height="5.8"/>
	<rect x="253.2" y="42.9" class="st4" width="5.8" height="5.8"/>
	<rect x="260.4" y="50.1" class="st4" width="5.8" height="5.8"/>
	<rect x="267.8" y="57.5" class="st5" width="5.8" height="5.8"/>
	<rect x="274.9" y="64.6" class="st5" width="5.8" height="5.8"/>
	<rect x="308.2" y="98.5" class="st3" width="5.8" height="5.8"/>
	<rect x="315.6" y="105.9" class="st3" width="5.8" height="5.8"/>
	<rect x="322.7" y="113.1" class="st4" width="5.8" height="5.8"/>
	<rect x="336.9" y="127.2" class="st3" width="5.8" height="5.8"/>
	<rect x="344.1" y="134.4" class="st3" width="5.8" height="5.8"/>
	<rect x="351.5" y="141.8" class="st4" width="5.8" height="5.8"/>
	<rect x="358.7" y="149" class="st5" width="5.8" height="5.8"/>
	<rect x="323.5" y="70.1" class="st3" width="5.8" height="5.8"/>
	<rect x="330.6" y="77.3" class="st3" width="5.8" height="5.8"/>
	<rect x="338" y="84.7" class="st4" width="5.8" height="5.8"/>
	<rect x="345.2" y="91.8" class="st4" width="5.8" height="5.8"/>
	<rect x="359.9" y="106.5" class="st3" width="5.8" height="5.8"/>
	<rect x="367.3" y="113.9" class="st4" width="5.8" height="5.8"/>
	<rect x="374.5" y="121.1" class="st5" width="5.8" height="5.8"/>
	<rect x="173.9" y="122.3" class="st5" width="5.8" height="5.8"/>
	<rect x="166.7" y="115.1" class="st4" width="5.8" height="5.8"/>
	<rect x="159.3" y="107.7" class="st3" width="5.8" height="5.8"/>
	<rect x="152.1" y="100.5" class="st3" width="5.8" height="5.8"/>
	<rect x="138" y="86.4" class="st3" width="5.8" height="5.8"/>
	<rect x="130.8" y="79.2" class="st4" width="5.8" height="5.8"/>
	<rect x="123.4" y="71.8" class="st4" width="5.8" height="5.8"/>
	<rect x="116.2" y="64.6" class="st3" width="5.8" height="5.8"/>
	<rect x="105.4" y="53.8" class="st3" width="5.8" height="5.8"/>
	<rect x="143.1" y="141" class="st5" width="5.8" height="5.8"/>
	<rect x="136" y="133.9" class="st5" width="5.8" height="5.8"/>
	<rect x="128.6" y="126.5" class="st4" width="5.8" height="5.8"/>
	<rect x="121.4" y="119.3" class="st4" width="5.8" height="5.8"/>
	<rect x="113.9" y="111.8" class="st4" width="5.8" height="5.8"/>
	<rect x="106.7" y="104.6" class="st3" width="5.8" height="5.8"/>
	<rect x="99.3" y="97.2" class="st3" width="5.8" height="5.8"/>
	<rect x="92.1" y="90" class="st3" width="5.8" height="5.8"/>
	<rect x="60.4" y="57.7" class="st4" width="5.8" height="5.8"/>
	<rect x="53" y="50.3" class="st4" width="5.8" height="5.8"/>
	<rect x="45.9" y="43.2" class="st3" width="5.8" height="5.8"/>
	<rect x="31.7" y="29" class="st3" width="5.8" height="5.8"/>
	<rect x="24.5" y="21.8" class="st3" width="5.8" height="5.8"/>
	<rect x="17.1" y="14.4" class="st3" width="5.8" height="5.8"/>
	<rect x="9.9" y="7.2" class="st3" width="5.8" height="5.8"/>
	<rect x="58.8" y="105.5" class="st5" width="5.8" height="5.8"/>
	<rect x="51.6" y="98.4" class="st4" width="5.8" height="5.8"/>
	<rect x="44.2" y="91" class="st4" width="5.8" height="5.8"/>
	<rect x="37" y="83.8" class="st3" width="5.8" height="5.8"/>
	<rect x="22.3" y="69.1" class="st4" width="5.8" height="5.8"/>
	<rect x="14.9" y="61.7" class="st3" width="5.8" height="5.8"/>
	<rect x="7.7" y="54.5" class="st3" width="5.8" height="5.8"/>
</g>
</svg>
